{
  "accessors": [
    {
      "bufferView": 2,
      "componentType": 5126,
      "count": 640,
      "max": [
        31.08014488220215,
        -3.4156899452209473,
        22.843168258666992
      ],
      "min": [
        26.018890380859375,
        -4.866733074188232,
        19.251489639282227
      ],
      "type": "VEC3"
    },
    {
      "bufferView": 2,
      "byteOffset": 7680,
      "componentType": 5126,
      "count": 640,
      "max": [
        0.9944374561309814,
        0.9620026350021362,
        0.9610867500305176
      ],
      "min": [
        -0.9944376349449158,
        -0.9620000123977661,
        -0.9610987901687622
      ],
      "type": "VEC3"
    },
    {
      "bufferView": 3,
      "componentType": 5126,
      "count": 640,
      "max": [
        0.9961549639701843,
        0.9978278875350952,
        0.4633433520793915,
        1.0
      ],
      "min": [
        -0.9990079402923584,
        -0.7973107695579529,
        -0.36935293674468994,
        1.0
      ],
      "type": "VEC4"
    },
    {
      "bufferView": 1,
      "componentType": 5126,
      "count": 640,
      "max": [
        0.9484519958496094,
        0.9611920118331909
      ],
      "min": [
        0.047492001205682755,
        0.04775200039148331
      ],
      "type": "VEC2"
    },
    {
      "bufferView": 0,
      "componentType": 5125,
      "count": 1554,
      "type": "SCALAR"
    },
    {
      "bufferView": 2,
      "byteOffset": 15360,
      "componentType": 5126,
      "count": 790,
      "max": [
        31.14628791809082,
        -3.865607976913452,
        22.87309455871582
      ],
      "min": [
        25.940763473510742,
        -4.95131778717041,
        19.131242752075195
      ],
      "type": "VEC3"
    },
    {
      "bufferView": 2,
      "byteOffset": 24840,
      "componentType": 5126,
      "count": 790,
      "max": [
        0.9940435886383057,
        0.9935683608055115,
        0.9964690208435059
      ],
      "min": [
        -0.9942148923873901,
        -0.9993813633918762,
        -0.995008111000061
      ],
      "type": "VEC3"
    },
    {
      "bufferView": 3,
      "byteOffset": 10240,
      "componentType": 5126,
      "count": 790,
      "max": [
        0.46941351890563965,
        0.994010329246521,
        0.6589900255203247,
        1.0
      ],
      "min": [
        -0.47792869806289673,
        -0.9945177435874939,
        -0.9993290901184082,
        1.0
      ],
      "type": "VEC4"
    },
    {
      "bufferView": 1,
      "byteOffset": 5120,
      "componentType": 5126,
      "count": 790,
      "max": [
        0.9764099717140198,
        0.8315269947052002
      ],
      "min": [
        0.006515999790281057,
        0.1684730052947998
      ],
      "type": "VEC2"
    },
    {
      "bufferView": 0,
      "byteOffset": 6216,
      "componentType": 5125,
      "count": 3231,
      "type": "SCALAR"
    },
    {
      "bufferView": 2,
      "byteOffset": 34320,
      "componentType": 5126,
      "count": 206,
      "max": [
        30.937503814697266,
        -2.8567399978637695,
        22.93317222595215
      ],
      "min": [
        26.407886505126953,
        -4.763560771942139,
        19.525712966918945
      ],
      "type": "VEC3"
    },
    {
      "bufferView": 2,
      "byteOffset": 36792,
      "componentType": 5126,
      "count": 206,
      "max": [
        0.9928357601165771,
        0.9616074562072754,
        0.9563229084014893
      ],
      "min": [
        -0.9539178609848022,
        -0.9616070985794067,
        -0.9563148617744446
      ],
      "type": "VEC3"
    },
    {
      "bufferView": 3,
      "byteOffset": 22880,
      "componentType": 5126,
      "count": 206,
      "max": [
        0.998249351978302,
        0.9615978598594666,
        0.9631724953651428,
        1.0
      ],
      "min": [
        -0.990337610244751,
        -0.9779990911483765,
        -0.989964485168457,
        1.0
      ],
      "type": "VEC4"
    },
    {
      "bufferView": 1,
      "byteOffset": 11440,
      "componentType": 5126,
      "count": 206,
      "max": [
        0.986735999584198,
        0.9837819933891296
      ],
      "min": [
        0.013399999588727951,
        0.03127500042319298
      ],
      "type": "VEC2"
    },
    {
      "bufferView": 0,
      "byteOffset": 19140,
      "componentType": 5125,
      "count": 576,
      "type": "SCALAR"
    }
  ],
  "asset": {
    "extras": {
      "author": "Yuli.Enders (https://sketchfab.com/yuli.enders)",
      "license": "CC-BY-4.0 (http://creativecommons.org/licenses/by/4.0/)",
      "source": "https://sketchfab.com/3d-models/book-f704c552d4a440ee9da35d78828043c3",
      "title": "Book"
    },
    "generator": "Sketchfab-12.65.0",
    "version": "2.0"
  },
  "bufferViews": [
    {
      "buffer": 0,
      "byteLength": 21444,
      "name": "floatBufferViews",
      "target": 34963
    },
    {
      "buffer": 0,
      "byteLength": 13088,
      "byteOffset": 21444,
      "byteStride": 8,
      "name": "floatBufferViews",
      "target": 34962
    },
    {
      "buffer": 0,
      "byteLength": 39264,
      "byteOffset": 34532,
      "byteStride": 12,
      "name": "floatBufferViews",
      "target": 34962
    },
    {
      "buffer": 0,
      "byteLength": 26176,
      "byteOffset": 73796,
      "byteStride": 16,
      "name": "floatBufferViews",
      "target": 34962
    }
  ],
  "buffers": [
    {
      "byteLength": 99972,
      "uri": "scene.bin"
    }
  ],
  "images": [
    {
      "uri": "textures/Book_Open_Pages_Thick_Mat_baseColor.jpeg"
    },
    {
      "uri": "textures/Book_Open_Pages_Thick_Mat_metallicRoughness.png"
    },
    {
      "uri": "textures/Book_Open_Pages_Thick_Mat_emissive.jpeg"
    },
    {
      "uri": "textures/Book_Open_Pages_Thick_Mat_normal.png"
    },
    {
      "uri": "textures/Book_Open_Cover_Mat_baseColor.jpeg"
    },
    {
      "uri": "textures/Book_Open_Cover_Mat_metallicRoughness.png"
    },
    {
      "uri": "textures/Book_Open_Cover_Mat_normal.png"
    },
    {
      "uri": "textures/Book_Open_Pages_Mat_baseColor.jpeg"
    },
    {
      "uri": "textures/Book_Open_Pages_Mat_metallicRoughness.png"
    },
    {
      "uri": "textures/Book_Open_Pages_Mat_emissive.jpeg"
    },
    {
      "uri": "textures/Book_Open_Pages_Mat_normal.png"
    }
  ],
  "materials": [
    {
      "doubleSided": true,
      "emissiveFactor": [
        1.0,
        1.0,
        1.0
      ],
      "emissiveTexture": {
        "index": 2
      },
      "name": "Book_Open_Pages_Thick_Mat",
      "normalTexture": {
        "index": 3
      },
      "occlusionTexture": {
        "index": 1
      },
      "pbrMetallicRoughness": {
        "baseColorTexture": {
          "index": 0
        },
        "metallicRoughnessTexture": {
          "index": 1
        }
      }
    },
    {
      "doubleSided": true,
      "name": "Book_Open_Cover_Mat",
      "normalTexture": {
        "index": 6
      },
      "occlusionTexture": {
        "index": 5
      },
      "pbrMetallicRoughness": {
        "baseColorTexture": {
          "index": 4
        },
        "metallicRoughnessTexture": {
          "index": 5
        }
      }
    },
    {
      "doubleSided": true,
      "emissiveFactor": [
        1.0,
        1.0,
        1.0
      ],
      "emissiveTexture": {
        "index": 9
      },
      "name": "Book_Open_Pages_Mat",
      "normalTexture": {
        "index": 10
      },
      "occlusionTexture": {
        "index": 8
      },
      "pbrMetallicRoughness": {
        "baseColorTexture": {
          "index": 7
        },
        "metallicRoughnessTexture": {
          "index": 8
        }
      }
    }
  ],
  "meshes": [
    {
      "name": "defaultMaterial",
      "primitives": [
        {
          "attributes": {
            "NORMAL": 1,
            "POSITION": 0,
            "TANGENT": 2,
            "TEXCOORD_0": 3
          },
          "indices": 4,
          "material": 0,
          "mode": 4
        }
      ]
    },
    {
      "name": "defaultMaterial",
      "primitives": [
        {
          "attributes": {
            "NORMAL": 6,
            "POSITION": 5,
            "TANGENT": 7,
            "TEXCOORD_0": 8
          },
          "indices": 9,
          "material": 1,
          "mode": 4
        }
      ]
    },
    {
      "name": "defaultMaterial",
      "primitives": [
        {
          "attributes": {
            "NORMAL": 11,
            "POSITION": 10,
            "TANGENT": 12,
            "TEXCOORD_0": 13
          },
          "indices": 14,
          "material": 2,
          "mode": 4
        }
      ]
    }
  ],
  "nodes": [
    {
      "children": [
        1
      ],
      "matrix": [
        1.0,
        0.0,
        0.0,
        0.0,
        0.0,
        2.220446049250313e-16,
        -1.0,
        0.0,
        0.0,
        1.0,
        2.220446049250313e-16,
        0.0,
        0.0,
        0.0,
        0.0,
        1.0
      ],
      "name": "Sketchfab_model"
    },
    {
      "children": [
        2
      ],
      "matrix": [
        1.0,
        0.0,
        0.0,
        0.0,
        0.0,
        -4.371139006309477e-08,
        0.999999999999999,
        0.0,
        0.0,
        -0.999999999999999,
        -4.371139006309477e-08,
        0.0,
        0.0,
        0.0,
        0.0,
        1.0
      ],
      "name": "Collada visual scene group"
    },
    {
      "children": [
        3
      ],
      "matrix": [
        1.0,
        0.0,
        0.0,
        0.0,
        0.0,
        1.0,
        0.0,
        0.0,
        0.0,
        0.0,
        1.0,
        0.0,
        -27.827534,
        12.603765,
        -21.133892,
        1.0
      ],
      "name": "Enchantment_Cube_Group"
    },
    {
      "children": [
        4,
        6,
        8
      ],
      "name": "Magic_Book_Open"
    },
    {
      "children": [
        5
      ],
      "name": "Pages_Thick"
    },
    {
      "mesh": 0,
      "name": "defaultMaterial"
    },
    {
      "children": [
        7
      ],
      "name": "Cover"
    },
    {
      "mesh": 1,
      "name": "defaultMaterial"
    },
    {
      "children": [
        9
      ],
      "name": "Pages_Thin"
    },
    {
      "mesh": 2,
      "name": "defaultMaterial"
    }
  ],
  "samplers": [
    {
      "magFilter": 9729,
      "minFilter": 9987,
      "wrapS": 10497,
      "wrapT": 10497
    }
  ],
  "scene": 0,
  "scenes": [
    {
      "name": "Sketchfab_Scene",
      "nodes": [
        0
      ]
    }
  ],
  "textures": [
    {
      "sampler": 0,
      "source": 0
    },
    {
      "sampler": 0,
      "source": 1
    },
    {
      "sampler": 0,
      "source": 2
    },
    {
      "sampler": 0,
      "source": 3
    },
    {
      "sampler": 0,
      "source": 4
    },
    {
      "sampler": 0,
      "source": 5
    },
    {
      "sampler": 0,
      "source": 6
    },
    {
      "sampler": 0,
      "source": 7
    },
    {
      "sampler": 0,
      "source": 8
    },
    {
      "sampler": 0,
      "source": 9
    },
    {
      "sampler": 0,
      "source": 10
    }
  ]
}
